<svg xmlns="http://www.w3.org/2000/svg" width="32.816" height="25.1" viewBox="0 0 32.816 25.1">
    <path data-name="Icon awesome-newspaper" d="M31.448 4.5H5.014a1.478 1.478 0 0 0-1.368 1.569v.523H1.367A1.478 1.478 0 0 0 0 8.16v17.779A3.45 3.45 0 0 0 3.19 29.6h26.891a2.957 2.957 0 0 0 2.735-3.137V6.069A1.478 1.478 0 0 0 31.448 4.5zM3.19 26.462a.493.493 0 0 1-.456-.523V9.729h.912v16.21a.493.493 0 0 1-.456.523zm13.445-1.046H7.976a.739.739 0 0 1-.684-.784v-.523a.739.739 0 0 1 .684-.784h8.66a.739.739 0 0 1 .684.784v.523a.739.739 0 0 1-.684.784zm11.85 0h-8.66a.739.739 0 0 1-.684-.784v-.523a.739.739 0 0 1 .684-.784h8.66a.739.739 0 0 1 .684.784v.523a.739.739 0 0 1-.683.784zm-11.85-6.275H7.976a.739.739 0 0 1-.684-.784v-.523a.739.739 0 0 1 .684-.784h8.66a.739.739 0 0 1 .684.784v.523a.739.739 0 0 1-.684.785zm11.85 0h-8.66a.739.739 0 0 1-.684-.784v-.523a.739.739 0 0 1 .684-.784h8.66a.739.739 0 0 1 .684.784v.523a.739.739 0 0 1-.683.785zm0-6.275H7.976a.739.739 0 0 1-.684-.784V9.468a.739.739 0 0 1 .684-.784h20.51a.739.739 0 0 1 .684.784v2.615a.739.739 0 0 1-.684.784z" transform="translate(0 -4.5)" style="fill:#495866"/>
</svg>
