<svg xmlns="http://www.w3.org/2000/svg" xmlns:xlink="http://www.w3.org/1999/xlink" width="326" height="516" viewBox="0 0 326 516">
  <defs>
    <clipPath id="clip-path">
      <rect id="Rectangle_17666" data-name="Rectangle 17666" width="326" height="516" rx="12" transform="translate(1025 -171)" fill="rgba(98,124,129,0.9)"/>
    </clipPath>
  </defs>
  <g id="Mask_Group_8" data-name="Mask Group 8" transform="translate(-1025 171)" clip-path="url(#clip-path)">
    <path id="Exclusion_3" data-name="Exclusion 3" d="M125.21,158.265a11.688,11.688,0,0,1-5.352-1.288,12.254,12.254,0,0,1-4.126-3.432,11.887,11.887,0,0,1-2.065-10.376L126.54,94.754l25.514-6.784a11.845,11.845,0,0,0,7.861-6.667,12.28,12.28,0,0,0,1.062-5.136,11.717,11.717,0,0,0-1.277-5.2l47.319,47.319a12,12,0,0,1-5.4,20.082l-73.271,19.483A12.227,12.227,0,0,1,125.21,158.265Zm-49.564-50.4a11.688,11.688,0,0,1-5.352-1.288,12.254,12.254,0,0,1-4.126-3.432A11.887,11.887,0,0,1,64.1,92.772L83.586,19.5a11.819,11.819,0,0,1,4.46-6.579,12.241,12.241,0,0,1,7.185-2.345,11.869,11.869,0,0,1,8.438,3.522l53.788,53.788a12.127,12.127,0,0,1,2.245,3.078l-6.469-6.47a11.867,11.867,0,0,0-8.437-3.522,12.241,12.241,0,0,0-7.185,2.345,11.819,11.819,0,0,0-4.46,6.58L126.54,94.754l-47.757,12.7A12.226,12.226,0,0,1,75.646,107.868Z" transform="translate(1418.569 197.043) rotate(92)" fill="#fff" opacity="0.108"/>
  </g>
</svg>
