<svg xmlns="http://www.w3.org/2000/svg" width="16.28" height="18.606" viewBox="0 0 16.28 18.606">
    <path data-name="Icon awesome-calendar-alt" d="M0 16.861a1.745 1.745 0 0 0 1.744 1.744h12.792a1.745 1.745 0 0 0 1.744-1.744V6.977H0zm11.629-7.122a.437.437 0 0 1 .436-.436h1.454a.437.437 0 0 1 .436.436v1.454a.437.437 0 0 1-.436.436h-1.454a.437.437 0 0 1-.436-.436zm0 4.651a.437.437 0 0 1 .436-.436h1.454a.437.437 0 0 1 .436.436v1.454a.437.437 0 0 1-.436.436h-1.454a.437.437 0 0 1-.436-.436zM6.977 9.739a.437.437 0 0 1 .436-.439h1.454a.437.437 0 0 1 .436.436v1.454a.437.437 0 0 1-.436.436H7.413a.437.437 0 0 1-.436-.436zm0 4.651a.437.437 0 0 1 .436-.436h1.454a.437.437 0 0 1 .436.436v1.454a.437.437 0 0 1-.436.436H7.413a.437.437 0 0 1-.436-.436zM2.326 9.739a.437.437 0 0 1 .436-.439h1.453a.437.437 0 0 1 .436.436v1.454a.437.437 0 0 1-.436.436H2.762a.437.437 0 0 1-.436-.436zm0 4.651a.437.437 0 0 1 .436-.436h1.453a.437.437 0 0 1 .436.436v1.454a.437.437 0 0 1-.436.436H2.762a.437.437 0 0 1-.436-.436zm12.21-12.064h-1.745V.581A.583.583 0 0 0 12.21 0h-1.163a.583.583 0 0 0-.581.581v1.745H5.814V.581A.583.583 0 0 0 5.233 0H4.07a.583.583 0 0 0-.581.581v1.745H1.744A1.745 1.745 0 0 0 0 4.07v1.744h16.28V4.07a1.745 1.745 0 0 0-1.744-1.744z" style="fill:#363b40"/>
</svg>
