<svg xmlns="http://www.w3.org/2000/svg" width="18.064" height="20.645" viewBox="0 0 18.064 20.645">
    <path data-name="Icon awesome-book" d="M18.064 14.516V.968A.965.965 0 0 0 17.1 0H3.871A3.872 3.872 0 0 0 0 3.871v12.9a3.872 3.872 0 0 0 3.871 3.871H17.1a.965.965 0 0 0 .968-.968v-.645a.975.975 0 0 0-.359-.754 8.992 8.992 0 0 1 0-3.012.961.961 0 0 0 .355-.747zM5.161 5.4a.243.243 0 0 1 .239-.239h8.548a.243.243 0 0 1 .242.242v.806a.243.243 0 0 1-.242.242H5.4a.243.243 0 0 1-.242-.242zm0 2.581a.243.243 0 0 1 .239-.239h8.548a.243.243 0 0 1 .242.242v.806a.243.243 0 0 1-.242.242H5.4a.243.243 0 0 1-.242-.242zm10.217 10.08H3.871a1.29 1.29 0 1 1 0-2.581h11.508a14.516 14.516 0 0 0 0 2.584z" style="fill:#363b40"/>
</svg>
