<svg xmlns="http://www.w3.org/2000/svg" width="25" height="25" viewBox="0 0 25 25">
    <defs>
        <clipPath id="au9hm2i3ba">
            <path data-name="Rectangle 566" transform="translate(765 1144)" style="fill:#707070" d="M0 0h25v25H0z"/>
        </clipPath>
    </defs>
    <g style="clip-path:url(#au9hm2i3ba)">
        <path data-name="Path 946" d="M15.729 4.8H22.1a3.2 3.2 0 0 1 3.188 3.49l-1.019 11.2a3.2 3.2 0 0 1-3.187 2.911H4.523a3.2 3.2 0 0 1-3.187-2.911L.317 8.292a3.185 3.185 0 0 1 .548-2.1L.8 4.8A3.2 3.2 0 0 1 4 1.6h5.878a3.2 3.2 0 0 1 2.263.938l1.325 1.325a3.2 3.2 0 0 0 2.263.938zm-13.318.193A3.2 3.2 0 0 1 3.505 4.8h8.636L11.01 3.67a1.6 1.6 0 0 0-1.132-.47H4a1.6 1.6 0 0 0-1.6 1.57l.009.222z" style="fill:#fcd462;fill-rule:evenodd" transform="translate(-.304 .497)"/>
    </g>
</svg>
