<svg xmlns="http://www.w3.org/2000/svg" xmlns:xlink="http://www.w3.org/1999/xlink" width="500" zoomAndPan="magnify" viewBox="0 0 375 374.999991" height="500" preserveAspectRatio="xMidYMid meet" version="1.0"><defs><g/><clipPath id="50dfc4aac0"><path d="M 112.5 87.664062 L 262.5 87.664062 L 262.5 237.664062 L 112.5 237.664062 Z M 112.5 87.664062 " clip-rule="nonzero"/></clipPath></defs><rect x="-37.5" width="450" fill="#ffffff" y="-37.499999" height="449.999989" fill-opacity="1"/><rect x="-37.5" width="450" fill="#ffffff" y="-37.499999" height="449.999989" fill-opacity="1"/><rect x="-37.5" width="450" fill="#e4e4e4" y="-37.499999" height="449.999989" fill-opacity="1"/><g clip-path="url(#50dfc4aac0)"><path fill="#231f20" d="M 248.105469 87.664062 L 126.894531 87.664062 C 125.949219 87.664062 125.011719 87.757812 124.085938 87.941406 C 123.160156 88.125 122.257812 88.398438 121.386719 88.761719 C 120.511719 89.121094 119.683594 89.566406 118.898438 90.089844 C 118.109375 90.617188 117.382812 91.214844 116.714844 91.882812 C 116.046875 92.550781 115.449219 93.277344 114.925781 94.0625 C 114.402344 94.847656 113.957031 95.679688 113.59375 96.550781 C 113.234375 97.425781 112.960938 98.324219 112.777344 99.25 C 112.59375 100.179688 112.5 101.113281 112.5 102.058594 L 112.5 223.273438 C 112.5 224.214844 112.59375 225.152344 112.777344 226.078125 C 112.960938 227.007812 113.234375 227.90625 113.59375 228.78125 C 113.957031 229.652344 114.402344 230.484375 114.925781 231.269531 C 115.449219 232.054688 116.046875 232.78125 116.714844 233.449219 C 117.382812 234.117188 118.109375 234.714844 118.898438 235.238281 C 119.683594 235.765625 120.511719 236.207031 121.386719 236.570312 C 122.257812 236.929688 123.160156 237.203125 124.085938 237.390625 C 125.011719 237.574219 125.949219 237.664062 126.894531 237.664062 L 248.105469 237.664062 C 249.050781 237.664062 249.988281 237.574219 250.914062 237.390625 C 251.839844 237.203125 252.742188 236.929688 253.613281 236.570312 C 254.488281 236.207031 255.316406 235.765625 256.101562 235.238281 C 256.890625 234.714844 257.617188 234.117188 258.285156 233.449219 C 258.953125 232.78125 259.550781 232.054688 260.074219 231.269531 C 260.597656 230.484375 261.042969 229.652344 261.402344 228.78125 C 261.765625 227.90625 262.039062 227.007812 262.222656 226.078125 C 262.40625 225.152344 262.5 224.214844 262.5 223.273438 L 262.5 102.058594 C 262.5 101.113281 262.40625 100.179688 262.222656 99.25 C 262.039062 98.324219 261.765625 97.425781 261.402344 96.550781 C 261.042969 95.679688 260.597656 94.847656 260.074219 94.0625 C 259.550781 93.277344 258.953125 92.550781 258.285156 91.882812 C 257.617188 91.214844 256.890625 90.617188 256.101562 90.089844 C 255.316406 89.566406 254.488281 89.121094 253.613281 88.761719 C 252.742188 88.398438 251.839844 88.125 250.914062 87.941406 C 249.988281 87.757812 249.050781 87.664062 248.105469 87.664062 Z M 126.894531 93.726562 L 248.105469 93.726562 C 248.652344 93.726562 249.195312 93.777344 249.734375 93.882812 C 250.269531 93.988281 250.792969 94.148438 251.296875 94.355469 C 251.804688 94.566406 252.285156 94.820312 252.738281 95.125 C 253.195312 95.429688 253.617188 95.773438 254.003906 96.164062 C 254.390625 96.550781 254.734375 96.972656 255.039062 97.425781 C 255.34375 97.882812 255.601562 98.363281 255.808594 98.867188 C 256.019531 99.375 256.175781 99.894531 256.28125 100.433594 C 256.386719 100.96875 256.441406 101.511719 256.4375 102.058594 L 256.4375 146.773438 C 235.984375 181.878906 217.984375 199.332031 204.242188 197.273438 C 195.894531 196 190.226562 187.9375 184.226562 179.332031 C 177.242188 169.394531 170.015625 159.105469 157.453125 157.558594 C 145.332031 156.042969 132.289062 163.621094 118.5625 179.847656 L 118.5625 102.058594 C 118.558594 101.511719 118.613281 100.96875 118.71875 100.433594 C 118.824219 99.894531 118.980469 99.375 119.191406 98.867188 C 119.398438 98.363281 119.65625 97.882812 119.960938 97.425781 C 120.265625 96.972656 120.609375 96.550781 120.996094 96.164062 C 121.382812 95.773438 121.804688 95.429688 122.261719 95.125 C 122.714844 94.820312 123.195312 94.566406 123.703125 94.355469 C 124.207031 94.148438 124.730469 93.988281 125.265625 93.882812 C 125.804688 93.777344 126.347656 93.726562 126.894531 93.726562 Z M 248.105469 231.605469 L 126.894531 231.605469 C 126.347656 231.605469 125.804688 231.554688 125.265625 231.449219 C 124.730469 231.339844 124.207031 231.183594 123.703125 230.976562 C 123.195312 230.765625 122.714844 230.507812 122.261719 230.207031 C 121.804688 229.902344 121.382812 229.554688 120.996094 229.167969 C 120.609375 228.78125 120.265625 228.359375 119.960938 227.90625 C 119.65625 227.449219 119.398438 226.96875 119.191406 226.464844 C 118.980469 225.957031 118.824219 225.433594 118.71875 224.898438 C 118.613281 224.363281 118.558594 223.820312 118.5625 223.273438 L 118.5625 189.621094 C 132.667969 171.015625 145.515625 162.257812 156.726562 163.636719 C 166.605469 164.847656 172.757812 173.605469 179.273438 182.878906 C 185.789062 192.152344 192.425781 201.621094 203.332031 203.273438 C 204.410156 203.429688 205.488281 203.507812 206.574219 203.515625 C 221.289062 203.574219 237.695312 188.726562 256.4375 158.542969 L 256.4375 223.273438 C 256.441406 223.820312 256.386719 224.363281 256.28125 224.898438 C 256.175781 225.433594 256.019531 225.957031 255.808594 226.464844 C 255.601562 226.96875 255.34375 227.449219 255.039062 227.90625 C 254.734375 228.359375 254.390625 228.78125 254.003906 229.167969 C 253.617188 229.554688 253.195312 229.902344 252.738281 230.207031 C 252.285156 230.507812 251.804688 230.765625 251.296875 230.976562 C 250.792969 231.183594 250.269531 231.339844 249.734375 231.449219 C 249.195312 231.554688 248.652344 231.605469 248.105469 231.605469 Z M 248.105469 231.605469 " fill-opacity="1" fill-rule="nonzero"/></g><path fill="#231f20" d="M 187.5 134.878906 C 188.035156 134.878906 188.570312 134.851562 189.101562 134.800781 C 189.632812 134.746094 190.160156 134.667969 190.6875 134.5625 C 191.210938 134.460938 191.730469 134.328125 192.242188 134.175781 C 192.753906 134.019531 193.257812 133.839844 193.75 133.632812 C 194.246094 133.429688 194.726562 133.203125 195.199219 132.949219 C 195.671875 132.695312 196.128906 132.421875 196.574219 132.125 C 197.019531 131.828125 197.449219 131.507812 197.863281 131.171875 C 198.273438 130.832031 198.671875 130.472656 199.050781 130.09375 C 199.425781 129.714844 199.785156 129.320312 200.125 128.90625 C 200.464844 128.492188 200.785156 128.0625 201.082031 127.617188 C 201.378906 127.175781 201.652344 126.714844 201.90625 126.242188 C 202.15625 125.773438 202.386719 125.289062 202.589844 124.792969 C 202.792969 124.300781 202.976562 123.796875 203.128906 123.285156 C 203.285156 122.773438 203.414062 122.253906 203.519531 121.730469 C 203.625 121.207031 203.703125 120.675781 203.753906 120.144531 C 203.808594 119.613281 203.832031 119.078125 203.832031 118.542969 C 203.832031 118.007812 203.808594 117.476562 203.753906 116.945312 C 203.703125 116.410156 203.625 115.882812 203.519531 115.359375 C 203.414062 114.832031 203.285156 114.316406 203.128906 113.804688 C 202.976562 113.292969 202.792969 112.789062 202.589844 112.292969 C 202.386719 111.800781 202.15625 111.316406 201.90625 110.84375 C 201.652344 110.375 201.378906 109.914062 201.082031 109.46875 C 200.785156 109.023438 200.464844 108.597656 200.125 108.183594 C 199.785156 107.769531 199.425781 107.375 199.050781 106.996094 C 198.671875 106.617188 198.273438 106.257812 197.863281 105.917969 C 197.449219 105.578125 197.019531 105.261719 196.574219 104.964844 C 196.128906 104.667969 195.671875 104.390625 195.199219 104.140625 C 194.726562 103.886719 194.246094 103.660156 193.75 103.453125 C 193.257812 103.25 192.753906 103.070312 192.242188 102.914062 C 191.730469 102.757812 191.210938 102.628906 190.6875 102.523438 C 190.160156 102.421875 189.632812 102.34375 189.101562 102.289062 C 188.570312 102.238281 188.035156 102.210938 187.5 102.210938 C 186.964844 102.210938 186.429688 102.238281 185.898438 102.289062 C 185.367188 102.34375 184.839844 102.421875 184.3125 102.523438 C 183.789062 102.628906 183.269531 102.757812 182.757812 102.914062 C 182.246094 103.070312 181.742188 103.25 181.25 103.453125 C 180.753906 103.660156 180.273438 103.886719 179.800781 104.140625 C 179.328125 104.390625 178.871094 104.667969 178.425781 104.964844 C 177.980469 105.261719 177.550781 105.578125 177.136719 105.917969 C 176.726562 106.257812 176.328125 106.617188 175.949219 106.996094 C 175.574219 107.375 175.214844 107.769531 174.875 108.183594 C 174.535156 108.597656 174.214844 109.023438 173.917969 109.46875 C 173.621094 109.914062 173.347656 110.375 173.09375 110.84375 C 172.84375 111.316406 172.613281 111.800781 172.410156 112.292969 C 172.207031 112.789062 172.023438 113.292969 171.871094 113.804688 C 171.714844 114.316406 171.585938 114.832031 171.480469 115.359375 C 171.375 115.882812 171.296875 116.410156 171.246094 116.945312 C 171.191406 117.476562 171.167969 118.007812 171.167969 118.542969 C 171.167969 119.078125 171.195312 119.613281 171.246094 120.144531 C 171.300781 120.675781 171.378906 121.203125 171.484375 121.730469 C 171.589844 122.253906 171.722656 122.769531 171.875 123.28125 C 172.03125 123.792969 172.214844 124.296875 172.417969 124.789062 C 172.625 125.285156 172.851562 125.765625 173.105469 126.238281 C 173.355469 126.710938 173.632812 127.167969 173.929688 127.613281 C 174.226562 128.054688 174.542969 128.484375 174.882812 128.898438 C 175.222656 129.3125 175.582031 129.707031 175.960938 130.085938 C 176.335938 130.464844 176.734375 130.820312 177.144531 131.160156 C 177.558594 131.5 177.988281 131.820312 178.433594 132.117188 C 178.878906 132.414062 179.335938 132.6875 179.804688 132.941406 C 180.277344 133.191406 180.761719 133.421875 181.253906 133.625 C 181.746094 133.832031 182.25 134.011719 182.761719 134.167969 C 183.273438 134.324219 183.792969 134.453125 184.316406 134.558594 C 184.839844 134.664062 185.367188 134.742188 185.898438 134.796875 C 186.433594 134.847656 186.964844 134.875 187.5 134.878906 Z M 187.5 108.273438 C 188.175781 108.273438 188.84375 108.335938 189.503906 108.46875 C 190.164062 108.601562 190.808594 108.796875 191.429688 109.054688 C 192.054688 109.3125 192.644531 109.628906 193.207031 110.003906 C 193.769531 110.378906 194.285156 110.804688 194.765625 111.28125 C 195.242188 111.757812 195.667969 112.277344 196.042969 112.835938 C 196.417969 113.398438 196.734375 113.988281 196.992188 114.613281 C 197.25 115.234375 197.445312 115.878906 197.574219 116.539062 C 197.707031 117.203125 197.773438 117.871094 197.773438 118.542969 C 197.773438 119.21875 197.707031 119.886719 197.574219 120.546875 C 197.445312 121.210938 197.25 121.851562 196.992188 122.476562 C 196.734375 123.097656 196.417969 123.691406 196.042969 124.25 C 195.667969 124.8125 195.242188 125.332031 194.765625 125.808594 C 194.285156 126.285156 193.769531 126.710938 193.207031 127.085938 C 192.644531 127.460938 192.054688 127.777344 191.429688 128.035156 C 190.808594 128.292969 190.164062 128.488281 189.503906 128.621094 C 188.84375 128.75 188.175781 128.816406 187.5 128.816406 C 186.824219 128.816406 186.15625 128.75 185.496094 128.621094 C 184.835938 128.488281 184.191406 128.292969 183.570312 128.035156 C 182.945312 127.777344 182.355469 127.460938 181.792969 127.085938 C 181.230469 126.710938 180.714844 126.285156 180.234375 125.808594 C 179.757812 125.332031 179.332031 124.8125 178.957031 124.25 C 178.582031 123.691406 178.265625 123.097656 178.007812 122.476562 C 177.75 121.851562 177.554688 121.210938 177.425781 120.546875 C 177.292969 119.886719 177.226562 119.21875 177.226562 118.542969 C 177.226562 117.871094 177.292969 117.203125 177.425781 116.542969 C 177.558594 115.878906 177.753906 115.238281 178.011719 114.617188 C 178.273438 113.992188 178.589844 113.402344 178.964844 112.839844 C 179.339844 112.28125 179.765625 111.761719 180.242188 111.285156 C 180.71875 110.808594 181.234375 110.382812 181.796875 110.007812 C 182.355469 109.632812 182.949219 109.316406 183.570312 109.058594 C 184.195312 108.800781 184.835938 108.605469 185.496094 108.472656 C 186.15625 108.339844 186.824219 108.273438 187.5 108.273438 Z M 187.5 108.273438 " fill-opacity="1" fill-rule="nonzero"/><g fill="#000000" fill-opacity="1"><g transform="translate(110.927341, 280.713058)"><g><path d="M 12.171875 0 L 10.90625 -2.953125 L 4.578125 -2.953125 L 3.3125 0 L -0.46875 0 L 6.21875 -14.265625 L 9.1875 -14.265625 L 15.875 0 Z M 5.796875 -5.78125 L 9.6875 -5.78125 L 7.734375 -10.28125 Z M 5.796875 -5.78125 "/></g></g></g><g fill="#000000" fill-opacity="1"><g transform="translate(130.666954, 280.713058)"><g><path d="M 1.28125 -14.265625 L 7.109375 -14.265625 C 8.691406 -14.265625 10.050781 -13.976562 11.1875 -13.40625 C 12.332031 -12.84375 13.207031 -12.023438 13.8125 -10.953125 C 14.425781 -9.890625 14.734375 -8.625 14.734375 -7.15625 C 14.734375 -5.675781 14.429688 -4.394531 13.828125 -3.3125 C 13.234375 -2.238281 12.363281 -1.414062 11.21875 -0.84375 C 10.070312 -0.28125 8.703125 0 7.109375 0 L 1.28125 0 Z M 6.859375 -3 C 8.242188 -3 9.28125 -3.34375 9.96875 -4.03125 C 10.65625 -4.726562 11 -5.769531 11 -7.15625 C 11 -9.894531 9.617188 -11.265625 6.859375 -11.265625 L 5.046875 -11.265625 L 5.046875 -3 Z M 6.859375 -3 "/></g></g></g><g fill="#000000" fill-opacity="1"><g transform="translate(150.647041, 280.713058)"><g><path d="M 1.28125 -14.265625 L 7.109375 -14.265625 C 8.691406 -14.265625 10.050781 -13.976562 11.1875 -13.40625 C 12.332031 -12.84375 13.207031 -12.023438 13.8125 -10.953125 C 14.425781 -9.890625 14.734375 -8.625 14.734375 -7.15625 C 14.734375 -5.675781 14.429688 -4.394531 13.828125 -3.3125 C 13.234375 -2.238281 12.363281 -1.414062 11.21875 -0.84375 C 10.070312 -0.28125 8.703125 0 7.109375 0 L 1.28125 0 Z M 6.859375 -3 C 8.242188 -3 9.28125 -3.34375 9.96875 -4.03125 C 10.65625 -4.726562 11 -5.769531 11 -7.15625 C 11 -9.894531 9.617188 -11.265625 6.859375 -11.265625 L 5.046875 -11.265625 L 5.046875 -3 Z M 6.859375 -3 "/></g></g></g><g fill="#000000" fill-opacity="1"><g transform="translate(170.627125, 280.713058)"><g/></g></g><g fill="#000000" fill-opacity="1"><g transform="translate(180.767998, 280.713058)"><g><path d="M 1.28125 0 L 1.28125 -14.265625 L 5.046875 -14.265625 L 5.046875 0 Z M 1.28125 0 "/></g></g></g><g fill="#000000" fill-opacity="1"><g transform="translate(191.429885, 280.713058)"><g><path d="M 12.8125 -14.265625 L 15.734375 -14.265625 L 15.734375 0 L 12.453125 0 L 12.421875 -6.53125 L 9.71875 0 L 7.34375 0 L 4.609375 -6.453125 L 4.609375 0 L 1.34375 0 L 1.34375 -14.265625 L 4.296875 -14.265625 L 8.5625 -4.53125 Z M 12.8125 -14.265625 "/></g></g></g><g fill="#000000" fill-opacity="1"><g transform="translate(212.83275, 280.713058)"><g><path d="M 12.171875 0 L 10.90625 -2.953125 L 4.578125 -2.953125 L 3.3125 0 L -0.46875 0 L 6.21875 -14.265625 L 9.1875 -14.265625 L 15.875 0 Z M 5.796875 -5.78125 L 9.6875 -5.78125 L 7.734375 -10.28125 Z M 5.796875 -5.78125 "/></g></g></g><g fill="#000000" fill-opacity="1"><g transform="translate(232.572365, 280.713058)"><g><path d="M 13.953125 -8.0625 L 13.953125 -0.90625 C 13.191406 -0.550781 12.335938 -0.28125 11.390625 -0.09375 C 10.453125 0.09375 9.488281 0.1875 8.5 0.1875 C 6.945312 0.1875 5.597656 -0.101562 4.453125 -0.6875 C 3.316406 -1.28125 2.441406 -2.128906 1.828125 -3.234375 C 1.210938 -4.335938 0.90625 -5.644531 0.90625 -7.15625 C 0.90625 -8.625 1.210938 -9.910156 1.828125 -11.015625 C 2.441406 -12.117188 3.304688 -12.96875 4.421875 -13.5625 C 5.546875 -14.15625 6.859375 -14.453125 8.359375 -14.453125 C 9.390625 -14.453125 10.363281 -14.316406 11.28125 -14.046875 C 12.195312 -13.785156 12.941406 -13.421875 13.515625 -12.953125 L 12.328125 -10.28125 C 11.671875 -10.707031 11.035156 -11.015625 10.421875 -11.203125 C 9.816406 -11.398438 9.171875 -11.5 8.484375 -11.5 C 7.210938 -11.5 6.265625 -11.140625 5.640625 -10.421875 C 5.023438 -9.710938 4.71875 -8.625 4.71875 -7.15625 C 4.71875 -5.632812 5.039062 -4.503906 5.6875 -3.765625 C 6.332031 -3.035156 7.332031 -2.671875 8.6875 -2.671875 C 9.3125 -2.671875 9.9375 -2.734375 10.5625 -2.859375 L 10.5625 -5.515625 L 8.078125 -5.515625 L 8.078125 -8.0625 Z M 13.953125 -8.0625 "/></g></g></g><g fill="#000000" fill-opacity="1"><g transform="translate(251.951274, 280.713058)"><g><path d="M 1.28125 0 L 1.28125 -14.265625 L 11.46875 -14.265625 L 11.46875 -11.390625 L 4.953125 -11.390625 L 4.953125 -8.703125 L 11.046875 -8.703125 L 11.046875 -5.8125 L 4.953125 -5.8125 L 4.953125 -2.890625 L 11.46875 -2.890625 L 11.46875 0 Z M 1.28125 0 "/></g></g></g></svg>