<svg xmlns="http://www.w3.org/2000/svg" width="35.58" height="27" viewBox="0 0 35.58 27">
    <path data-name="Icon awesome-folder-open" d="M35.376 20.538 30.9 29.267a3.891 3.891 0 0 1-3.413 2.233H2.781A1.7 1.7 0 0 1 1.5 28.962l4.474-8.73A3.891 3.891 0 0 1 9.389 18H34.1a1.7 1.7 0 0 1 1.281 2.538zM9.389 15.75H29.65v-3.375A3.19 3.19 0 0 0 26.685 9H16.8l-3.952-4.5H2.965A3.19 3.19 0 0 0 0 7.875v19.55L4.267 19.1a5.856 5.856 0 0 1 5.122-3.35z" transform="translate(0 -4.5)" style="fill:#495866"/>
</svg>
